<svg xmlns="http://www.w3.org/2000/svg" viewBox="0 0 1600 1000" width="1600" height="1000">
  <title>Editorial illustration for a claim in circulation</title>
  <defs>
    <linearGradient id="wGround" x1="0.1" y1="0" x2="0.9" y2="1">
      <stop offset="0" stop-color="#15171a"/><stop offset="0.6" stop-color="#0e1012"/><stop offset="1" stop-color="#08090a"/>
    </linearGradient>
    <radialGradient id="wOrigin" cx="0.185" cy="0.5" r="0.42">
      <stop offset="0" stop-color="#f0b429" stop-opacity="0.28"/><stop offset="1" stop-color="#f0b429" stop-opacity="0"/>
    </radialGradient>
    <linearGradient id="wThread" x1="0" y1="0" x2="1" y2="0">
      <stop offset="0" stop-color="#f0b429" stop-opacity="0.9"/><stop offset="0.55" stop-color="#f0b429" stop-opacity="0.32"/><stop offset="1" stop-color="#f0b429" stop-opacity="0.05"/>
    </linearGradient>
    <linearGradient id="wEdge" x1="0" y1="0" x2="1" y2="0">
      <stop offset="0" stop-color="#f6f3eb" stop-opacity="0.34"/><stop offset="1" stop-color="#f6f3eb" stop-opacity="0.05"/>
    </linearGradient>
  </defs>

  <rect width="1600" height="1000" fill="url(#wGround)"/>
  <rect width="1600" height="1000" fill="url(#wOrigin)"/>

  <!-- One claim on the left; repetition spreading right. Amplification is the
       only thing drawn here, so the accent belongs to the first utterance. -->
  <g fill="none" stroke="url(#wEdge)" stroke-width="1.5">
    <path d="M296 500C420 500 470 330 596 330"/>
    <path d="M296 500C420 500 470 420 596 420"/>
    <path d="M296 500C420 500 470 580 596 580"/>
    <path d="M296 500C420 500 470 668 596 668"/>
    <path d="M596 330C720 330 760 236 884 236"/>
    <path d="M596 330C720 330 760 356 884 356"/>
    <path d="M596 420C720 420 760 452 884 452"/>
    <path d="M596 580C720 580 760 548 884 548"/>
    <path d="M596 580C720 580 760 644 884 644"/>
    <path d="M596 668C720 668 760 764 884 764"/>
    <path d="M884 236C1010 236 1050 190 1176 190"/>
    <path d="M884 356C1010 356 1050 300 1176 300"/>
    <path d="M884 356C1010 356 1050 396 1176 396"/>
    <path d="M884 452C1010 452 1050 492 1176 492"/>
    <path d="M884 548C1010 548 1050 596 1176 596"/>
    <path d="M884 644C1010 644 1050 700 1176 700"/>
    <path d="M884 764C1010 764 1050 806 1176 806"/>
    <path d="M1176 190C1290 190 1330 160 1444 160"/>
    <path d="M1176 300C1290 300 1330 268 1444 268"/>
    <path d="M1176 396C1290 396 1330 376 1444 376"/>
    <path d="M1176 492C1290 492 1330 484 1444 484"/>
    <path d="M1176 596C1290 596 1330 592 1444 592"/>
    <path d="M1176 700C1290 700 1330 700 1444 700"/>
    <path d="M1176 806C1290 806 1330 808 1444 808"/>
  </g>

  <!-- The traced path of one claim, carried all the way across. -->
  <path d="M296 500C420 500 470 330 596 330C720 330 760 236 884 236C1010 236 1050 190 1176 190C1290 190 1330 160 1444 160"
        fill="none" stroke="url(#wThread)" stroke-width="3"/>

  <g fill="#f6f3eb">
    <g fill-opacity="0.30">
      <circle cx="596" cy="420" r="7"/><circle cx="596" cy="580" r="7"/><circle cx="596" cy="668" r="7"/>
      <circle cx="884" cy="356" r="6"/><circle cx="884" cy="452" r="6"/><circle cx="884" cy="548" r="6"/>
      <circle cx="884" cy="644" r="6"/><circle cx="884" cy="764" r="6"/>
    </g>
    <g fill-opacity="0.16">
      <circle cx="1176" cy="300" r="5"/><circle cx="1176" cy="396" r="5"/><circle cx="1176" cy="492" r="5"/>
      <circle cx="1176" cy="596" r="5"/><circle cx="1176" cy="700" r="5"/><circle cx="1176" cy="806" r="5"/>
    </g>
    <g fill-opacity="0.09">
      <circle cx="1444" cy="268" r="4"/><circle cx="1444" cy="376" r="4"/><circle cx="1444" cy="484" r="4"/>
      <circle cx="1444" cy="592" r="4"/><circle cx="1444" cy="700" r="4"/><circle cx="1444" cy="808" r="4"/>
    </g>
  </g>

  <g fill="#f0b429">
    <circle cx="596" cy="330" r="7" fill-opacity="0.66"/>
    <circle cx="884" cy="236" r="6" fill-opacity="0.44"/>
    <circle cx="1176" cy="190" r="5" fill-opacity="0.3"/>
    <circle cx="1444" cy="160" r="4" fill-opacity="0.2"/>
  </g>

  <circle cx="296" cy="500" r="26" fill="none" stroke="#f0b429" stroke-opacity="0.45"/>
  <circle cx="296" cy="500" r="44" fill="none" stroke="#f0b429" stroke-opacity="0.18"/>
  <circle cx="296" cy="500" r="12" fill="#f0b429"/>
</svg>
